<svg width="129" height="128" viewBox="0 0 129 128" fill="none" xmlns="http://www.w3.org/2000/svg">
<g clip-path="url(#clip0_911_1388)">
<path fill-rule="evenodd" clip-rule="evenodd" d="M74.9001 2.15558L74.9011 2.15598L74.917 2.16234L74.9537 2.17707L75.0849 2.23012C75.1976 2.27587 75.3601 2.34227 75.5685 2.42849C75.9852 2.6009 76.5859 2.85278 77.339 3.17751C78.8442 3.82655 80.9639 4.769 83.4446 5.95208C88.3804 8.30607 94.8564 11.6651 100.783 15.6104L102.555 16.7897L103.747 23.394C105.539 24.1079 107.637 24.9511 109.52 25.7097C110.986 26.3006 112.329 26.8429 113.305 27.2375C113.793 27.4348 114.189 27.5953 114.464 27.7064L114.891 27.8794L116.498 28.5304L117.356 30.0355C119.447 33.6995 121.836 38.5432 123.669 42.3909C124.593 44.3313 125.391 46.0495 125.958 47.2832C126.241 47.9004 126.468 48.3972 126.624 48.741C126.702 48.9129 126.762 49.0467 126.803 49.1381L126.867 49.2805L126.868 49.2816L127.614 50.9447L121.413 72.7105L115.97 77.3661C115.746 81.9771 115.057 85.6492 114.355 88.3153C113.948 89.8618 113.537 91.0676 113.211 91.9203C113.048 92.3467 112.907 92.6848 112.797 92.9331C112.743 93.0573 112.696 93.1591 112.659 93.2382C112.64 93.2778 112.624 93.3117 112.611 93.34L112.579 93.4045L112.584 93.394L112.581 93.4011L111.676 95.2213L78.2254 107.051C71.0764 114.77 60.4603 119.41 52.0735 122.132C47.5964 123.585 43.5377 124.558 40.596 125.17C39.1221 125.476 37.9205 125.693 37.0773 125.835C36.6555 125.906 36.3228 125.959 36.0898 125.994C35.9733 126.012 35.8817 126.025 35.8163 126.034L35.7381 126.046L35.7058 126.05L35.7027 126.05L33.1273 126.402L31.3596 124.499L31.3145 124.45L31.1921 124.318C31.0858 124.202 30.9312 124.034 30.7336 123.818C30.3387 123.386 29.7719 122.763 29.078 121.989C27.6914 120.444 25.7905 118.292 23.7344 115.867C19.7133 111.125 14.7848 104.977 12.1301 100.28L11.1483 98.5431L11.9758 95.233L8.65619 94.2052L0.967468 81.6332L6.88805 65.3424L3.55832 60.5327L3.87235 58.5523C4.57459 54.1237 5.49982 49.0364 6.24491 45.0779C6.61834 43.0939 6.94829 41.3841 7.18502 40.1697C7.3034 39.5623 7.39854 39.0785 7.46423 38.7458L7.56661 38.2291L7.82561 36.9312L16.3144 27.1385L41.6712 16.5614L47.0814 9.10419L73.3066 1.52002L74.9001 2.15558ZM17.1185 41.4778C17.0824 41.6623 17.0429 41.8644 17.0003 42.0829C16.7668 43.2807 16.441 44.9689 16.0723 46.9277C15.4442 50.265 14.6966 54.3607 14.069 58.1467L18.0522 63.9001L12.0107 80.5235L15.2185 85.7686L23.9721 88.4788L21.8384 97.0135C24.1603 100.632 27.8683 105.28 31.3615 109.4C33.3423 111.736 35.1793 113.815 36.5215 115.311C36.6459 115.45 36.7661 115.584 36.8816 115.712C37.3801 115.618 37.9427 115.508 38.561 115.379C41.2403 114.822 44.9348 113.935 48.9868 112.62C57.2893 109.926 66.2659 105.693 71.5475 99.5156L72.418 98.4975L104.258 87.2377C104.392 86.8207 104.537 86.3308 104.685 85.7692C105.306 83.4077 105.979 79.769 106.041 74.9394L106.069 72.675L112.622 67.0707L116.994 51.725C116.954 51.6389 116.913 51.55 116.871 51.4583C116.319 50.2562 115.541 48.5811 114.641 46.6916C113.084 43.4241 111.204 39.605 109.504 36.4872C108.535 36.0956 107.218 35.5636 105.783 34.9851C102.85 33.8037 99.45 32.4393 97.4983 31.6751L94.8973 30.6567L93.4764 22.789C88.582 19.6902 83.35 16.986 79.1399 14.9781C76.792 13.8584 74.7894 12.9682 73.3795 12.3603C73.1541 12.2631 72.944 12.1731 72.7502 12.0907L53.1588 17.7564L48.115 24.7087L22.3321 35.4634L17.1185 41.4778Z" fill="#DCF2FF"/>
<path d="M113.014 32.5136C113.014 32.5136 103.278 28.5685 99.3213 27.0193L98.0125 19.7726C86.7115 12.2497 73.0477 6.7998 73.0477 6.7998L50.1201 13.4303L44.8931 20.6351L19.3232 31.301L12.4701 39.2068C12.4701 39.2068 10.1926 50.62 8.81065 59.3354L12.4701 64.6212L6.48907 81.0783L11.9373 89.9869L17.9739 91.8559L16.4829 97.8199C21.2685 106.287 35.0237 121.097 35.0237 121.097C35.0237 121.097 62.9328 117.286 75.3479 102.765L108.1 91.1826C108.1 91.1826 110.906 85.5349 111.04 75.0029L117.018 69.8906L122.306 51.3278C122.306 51.3278 117.001 39.5017 113.014 32.5136Z" fill="#194260"/>
<path d="M33.7078 30.3454L21.6755 36.1271L17.1856 42.0963C17.1856 42.0963 15.5813 50.0032 14.6229 56.5871L16.4563 59.2748L16.7272 57.0559L21.2692 58.8373L24.7383 53.9827L26.1342 40.7316L21.5088 48.7844L23.9257 37.6585L33.6973 30.335L33.7078 30.3454Z" fill="#7ED1FF"/>
<path d="M16.4688 70.8089L22.2546 69.9238L24.1651 75.9283C24.1651 75.9283 20.3325 83.67 17.8615 84.38L15.2051 83.3009L12.8807 79.4822L16.4783 70.8183L16.4688 70.8089Z" fill="#7ED1FF"/>
<path d="M50.6795 21.5109C50.6795 21.5109 52.7636 18.2677 53.6552 17.7105C53.6552 17.7105 68.5561 13.5422 71.2421 12.2383C71.2421 12.2383 83.8136 17.0529 90.0548 20.7196L88.2939 22.6254C88.2939 22.6254 75.8672 23.8291 73.2482 23.4613L66.8732 21.054L50.6906 21.5221L50.6795 21.5109Z" fill="#7ED1FF"/>
<path d="M94.3489 39.1035C94.3489 39.1035 99.2542 33.7714 99.7616 33.1475C99.7616 33.1475 107.664 36.4968 109.011 36.9877C109.011 36.9877 114.752 49.5744 115.742 50.8888L111.789 65.2911L110.912 60.4379L107.205 58.7152L102.877 64.0332L97.3446 60.4379L94.3489 39.1035Z" fill="#7ED1FF"/>
<path d="M91.3512 72.2634L96.3168 71.2842L101.95 74.3216C101.95 74.3216 101.047 82.4521 100.059 84.6483C100.059 84.6483 98.9116 78.2281 98.2535 77.0726L92.7516 82.751L91.3512 89.0741L78.1595 94.1133C78.1595 94.1133 79.8554 88.6988 80.7049 85.8215C86.6354 80.4419 91.3512 72.2634 91.3512 72.2634Z" fill="#7ED1FF"/>
<path d="M36.6018 80.8191C36.6018 80.8191 30.2971 86.1369 25.5457 88.7228C25.5457 88.7228 24.1843 93.6569 23.5721 95.7128C23.5721 95.7128 28.424 103.142 36.6018 112.087C36.6018 112.087 52.5903 108.953 61.1286 104.601L64.144 99.6292L58.814 98.1437C58.814 98.1437 54.0448 87.8822 54.1271 86.8953L47.5476 84.8115L53.4418 96.5351C53.4418 96.5351 48.713 101.115 38.1503 106.433C38.1503 106.433 30.2788 100.318 27.7569 93.2C27.7569 93.2 33.5817 88.3797 38.1503 85.9126C38.1503 85.9126 42.3674 93.82 41.3433 95.3526C41.3433 95.3526 38.3248 91.1667 36.6018 90.2161C36.6018 90.2161 34.1908 95.0858 33.1527 96.5351C33.1527 96.5351 36.4197 97.8456 39.7468 101.322C39.7468 101.322 42.4609 97.8971 45.7162 95.7128L43.2446 83.3501L36.611 80.8008L36.6018 80.8191Z" fill="#7ED1FF"/>
<path d="M30.8446 61.7924C30.8446 61.7924 35.1202 68.837 35.8662 70.4009C35.8662 70.4009 35.9093 69.2244 36.4258 68.7079L36.2967 63.0837L34.8476 61.6346L33.6711 46.0244C34.6324 44.4892 35.9523 41.7345 35.9523 41.7345L39.5679 40.5867L47.7747 43.858L51.749 50.7735L52.0359 65.7953C52.0359 65.7953 47.3012 67.2588 46.4547 67.5027L46.6125 76.5416C46.6125 76.5416 52.6529 76.8286 58.0188 76.226C58.0188 76.226 64.8339 75.2647 67.3017 70.3579C67.3017 70.3579 65.3074 49.31 65.623 47.8035C65.623 47.8035 70.9747 44.3458 77.0724 41.175C77.0724 41.175 70.5442 33.3412 69.1669 31.6626C69.1669 31.6626 58.3058 28.8791 54.2741 28.75C54.2741 28.75 45.1778 33.0686 33.9006 36.7416C33.9006 36.7416 31.7485 40.1419 30.4285 44.3458C30.4285 44.3458 30.8877 54.3604 30.8446 61.778V61.7924Z" fill="#7ED1FF"/>
<path d="M45.5607 64.1086C47.4954 63.9485 48.7651 60.2081 48.3966 55.7543C48.0281 51.3004 46.1609 47.8196 44.2261 47.9797C42.2914 48.1398 41.0217 51.8801 41.3902 56.334C41.7588 60.7879 43.6259 64.2687 45.5607 64.1086Z" fill="#7ED1FF"/>
</g>
<defs>
<clipPath id="clip0_911_1388">
<rect width="128" height="128" fill="white" transform="translate(0.583801)"/>
</clipPath>
</defs>
</svg>
