<svg xmlns="http://www.w3.org/2000/svg" viewBox="0 0 24 30" fill="#6587e8">
  <path d="M12.5 2.6h-1c-.7 1.2-1.4 3.6-2 4l1 2s1.9.2 3 3c0 0 0-.7 1 2h5l1-1a13 13 0 0 1-5-3c-1-1.1-1.4-2.6-1-4l-1.2-1-.8-2Zm2 13 2 1s-.3.2 4 1l1-1-2-1h-5Zm0 2c.7.3 1.4.6 2 1 .9.7 1.9 1 3 1l-2 2c-.8 0-1.5.3-2 1v1c-.9-.8-2.8-.6-2-4 .3-.7.6-1.4 1-2Zm-11-7 2 2c1.2.2 2.3.9 3 2v1l-3-1-2-1v-3Zm3-2v2l4 2s.1-.3-1-2c-.5-.8-1.2-1.4-2-2h-1Zm-3 9a2 2 0 0 1 0-1c.2 0 5.8 1.8 6 2l2 2s-.6 2.7 3 5l-2 3-3-2c.1-2.4-1.6-4.6-4-5 0-1.6-.7-3-2-4Z"/>
</svg>
